<?xml version="1.0" encoding="UTF-8"?>
<svg width="1280px" height="720px" viewBox="0 0 1280 720" 
     xmlns="http://www.w3.org/2000/svg" 
     xmlns:xlink="http://www.w3.org/1999/xlink">
  
  <!-- 定義セクション -->
  <defs>
    <!-- カラーテーマ -->
    <style type="text/css"><![CDATA[
      .primary-color { fill: #0078d4; }
      .primary-stroke { stroke: #0078d4; }
      .background-color { fill: #f0f4f8; }
      .accent-color { fill: #e6f2ff; }
      .text-color { fill: #333333; }
      .text-light { fill: #666666; }
      .text-white { fill: #ffffff; }
      .border-color { stroke: #cfd8e3; fill: none; }
      
      /* フォントスタイル */
      .font-title { font-family: 'Segoe UI', Tahoma, Geneva, Verdana, sans-serif; font-size: 40px; font-weight: bold; }
      .font-toc-item { font-family: 'Segoe UI', Tahoma, Geneva, Verdana, sans-serif; font-size: 18px; font-weight: normal; }
      .font-toc-number { font-family: 'Segoe UI', Tahoma, Geneva, Verdana, sans-serif; font-size: 14px; font-weight: bold; }
      .font-body { font-family: 'Segoe UI', Tahoma, Geneva, Verdana, sans-serif; font-size: 16px; font-weight: normal; }
      .font-small { font-family: 'Segoe UI', Tahoma, Geneva, Verdana, sans-serif; font-size: 12px; font-weight: normal; }
    ]]></style>
    
    <!-- アイコン定義 -->
    <symbol id="icon-info-circle" viewBox="0 0 24 24">
      <circle cx="12" cy="12" r="10"/>
      <path d="M12 16v-4"/>
      <path d="M12 8h.01"/>
    </symbol>
    
    <symbol id="icon-sitemap" viewBox="0 0 24 24">
      <rect x="3" y="3" width="6" height="4" rx="1"/>
      <rect x="15" y="3" width="6" height="4" rx="1"/>
      <rect x="9" y="15" width="6" height="4" rx="1"/>
      <path d="M6 7v4l6 0v4"/>
      <path d="M18 7v4l-6 0"/>
    </symbol>
    
    <symbol id="icon-tools" viewBox="0 0 24 24">
      <path d="M3 12h3l2-2v-2l-2-2H3v6zM21 12h-3l-2-2V8l2-2h3v6z"/>
      <path d="M7.5 15.5L10 13l4 4-2.5 2.5c-.28.28-.68.5-1.06.5s-.77-.22-1.06-.5l-1.83-1.83c-.28-.28-.5-.68-.5-1.06s.22-.77.5-1.06z"/>
    </symbol>
    
    <symbol id="icon-file-code" viewBox="0 0 24 24">
      <path d="M14 2H6c-1.1 0-2 .9-2 2v16c0 1.1.9 2 2 2h12c1.1 0 2-.9 2-2V8l-6-6z"/>
      <path d="M14 2v6h6"/>
      <path d="M10 12l-2 2 2 2"/>
      <path d="M14 16l2-2-2-2"/>
    </symbol>
    
    <symbol id="icon-cogs" viewBox="0 0 24 24">
      <circle cx="12" cy="12" r="3"/>
      <path d="M19.4 15a1.65 1.65 0 0 0 .33 1.82l.06.06a2 2 0 0 1 0 2.83 2 2 0 0 1-2.83 0l-.06-.06a1.65 1.65 0 0 0-1.82-.33 1.65 1.65 0 0 0-1 1.51V21a2 2 0 0 1-2 2 2 2 0 0 1-2-2v-.09A1.65 1.65 0 0 0 9 19.4a1.65 1.65 0 0 0-1.82.33l-.06.06a2 2 0 0 1-2.83 0 2 2 0 0 1 0-2.83l.06-.06a1.65 1.65 0 0 0 .33-1.82 1.65 1.65 0 0 0-1.51-1H3a2 2 0 0 1-2-2 2 2 0 0 1 2-2h.09A1.65 1.65 0 0 0 4.6 9a1.65 1.65 0 0 0-.33-1.82l-.06-.06a2 2 0 0 1 0-2.83 2 2 0 0 1 2.83 0l.06.06a1.65 1.65 0 0 0 1.82.33H9a1.65 1.65 0 0 0 1-1.51V3a2 2 0 0 1 2-2 2 2 0 0 1 2 2v.09a1.65 1.65 0 0 0 1 1.51 1.65 1.65 0 0 0 1.82-.33l.06-.06a2 2 0 0 1 2.83 0 2 2 0 0 1 0 2.83l-.06.06a1.65 1.65 0 0 0-.33 1.82V9a1.65 1.65 0 0 0 1.51 1H21a2 2 0 0 1 2 2 2 2 0 0 1-2 2h-.09a1.65 1.65 0 0 0-1.51 1z"/>
    </symbol>
    
    <symbol id="icon-sync-alt" viewBox="0 0 24 24">
      <path d="M1 4v6h6"/>
      <path d="M23 20v-6h-6"/>
      <path d="M20.49 9A9 9 0 0 0 5.64 5.64L1 10m22 4l-4.64 4.36A9 9 0 0 1 3.51 15"/>
    </symbol>
    
    <symbol id="icon-cube" viewBox="0 0 24 24">
      <path d="M21 16V8a2 2 0 0 0-1-1.73l-7-4a2 2 0 0 0-2 0l-7 4A2 2 0 0 0 3 8v8a2 2 0 0 0 1 1.73l7 4a2 2 0 0 0 2 0l7-4A2 2 0 0 0 21 16z"/>
      <path d="M7.5 4.21l4.5 2.6 4.5-2.6"/>
      <path d="M7.5 19.79V14.6L3 12"/>
      <path d="M21 12l-4.5 2.6v5.19"/>
      <path d="M12 6.81v10.38"/>
    </symbol>
    
    <symbol id="icon-database" viewBox="0 0 24 24">
      <ellipse cx="12" cy="5" rx="9" ry="3"/>
      <path d="M3 5v14c0 1.66 4.03 3 9 3s9-1.34 9-3V5"/>
      <path d="M3 12c0 1.66 4.03 3 9 3s9-1.34 9-3"/>
    </symbol>
    
    <symbol id="icon-laptop-code" viewBox="0 0 24 24">
      <rect x="2" y="4" width="20" height="12" rx="2"/>
      <path d="M2 17h20"/>
      <path d="M6 11l2 2-2 2"/>
      <path d="M10 15h4"/>
    </symbol>
    
    <symbol id="icon-road" viewBox="0 0 24 24">
      <path d="M8 3h8L18 21H6L8 3z"/>
      <path d="M12 8v2"/>
      <path d="M12 14v2"/>
    </symbol>
    
    <symbol id="icon-question-circle" viewBox="0 0 24 24">
      <circle cx="12" cy="12" r="10"/>
      <path d="M9.09 9a3 3 0 0 1 5.83 1c0 2-3 3-3 3"/>
      <path d="M12 17h.01"/>
    </symbol>
    
    <symbol id="icon-book" viewBox="0 0 24 24">
      <path d="M4 19.5A2.5 2.5 0 0 1 6.5 17H20"/>
      <path d="M6.5 2H20v20H6.5A2.5 2.5 0 0 1 4 19.5v-15A2.5 2.5 0 0 1 6.5 2z"/>
    </symbol>
  </defs>
  
  <!-- 背景 -->
  <rect width="1280" height="720" class="background-color"/>
  
  <!-- ヘッダーアクセント -->
  <rect id="header-accent" x="0" y="0" width="1280" height="8" class="primary-color"/>
  
  <!-- サイドアクセント -->
  <rect id="side-accent" x="0" y="0" width="12" height="720" class="primary-color"/>
  
  <!-- フッター -->
  <g id="footer">
    <rect x="0" y="680" width="1280" height="40" class="primary-color"/>
    <text x="30" y="704" class="font-small text-white">2 / 12</text>
    <text x="1250" y="704" class="font-small text-white" text-anchor="end">ASP.NET WebForms 学習ガイド</text>
  </g>
  
  <!-- メインコンテンツ -->
  <g id="content-area" transform="translate(60, 60)">
    
    <!-- タイトル -->
    <text x="30" y="60" class="font-title text-color">目次</text>
    
    <!-- アンダーライン -->
    <rect x="30" y="75" width="80" height="4" class="primary-color"/>
    
    <!-- 左列の目次項目 -->
    <g id="left-column" transform="translate(50, 130)">
      
      <!-- 1. はじめに -->
      <g class="toc-item" transform="translate(0, 0)">
        <circle cx="14" cy="14" r="14" class="primary-color"/>
        <text x="14" y="19" class="font-toc-number text-white" text-anchor="middle">1</text>
        <use xlink:href="#icon-info-circle" x="40" y="4" width="20" height="20" class="primary-color"/>
        <text x="70" y="20" class="font-toc-item text-color">はじめに</text>
      </g>
      
      <!-- 2. WebFormsの基本概念 -->
      <g class="toc-item" transform="translate(0, 50)">
        <circle cx="14" cy="14" r="14" class="primary-color"/>
        <text x="14" y="19" class="font-toc-number text-white" text-anchor="middle">2</text>
        <use xlink:href="#icon-sitemap" x="40" y="4" width="20" height="20" class="primary-color"/>
        <text x="70" y="20" class="font-toc-item text-color">WebFormsの基本概念</text>
      </g>
      
      <!-- 3. 開発環境セットアップ -->
      <g class="toc-item" transform="translate(0, 100)">
        <circle cx="14" cy="14" r="14" class="primary-color"/>
        <text x="14" y="19" class="font-toc-number text-white" text-anchor="middle">3</text>
        <use xlink:href="#icon-tools" x="40" y="4" width="20" height="20" class="primary-color"/>
        <text x="70" y="20" class="font-toc-item text-color">開発環境セットアップ</text>
      </g>
      
      <!-- 4. プロジェクト作成 -->
      <g class="toc-item" transform="translate(0, 150)">
        <circle cx="14" cy="14" r="14" class="primary-color"/>
        <text x="14" y="19" class="font-toc-number text-white" text-anchor="middle">4</text>
        <use xlink:href="#icon-file-code" x="40" y="4" width="20" height="20" class="primary-color"/>
        <text x="70" y="20" class="font-toc-item text-color">プロジェクト作成</text>
      </g>
      
      <!-- 5. WebFormsの仕組み -->
      <g class="toc-item" transform="translate(0, 200)">
        <circle cx="14" cy="14" r="14" class="primary-color"/>
        <text x="14" y="19" class="font-toc-number text-white" text-anchor="middle">5</text>
        <use xlink:href="#icon-cogs" x="40" y="4" width="20" height="20" class="primary-color"/>
        <text x="70" y="20" class="font-toc-item text-color">WebFormsの仕組み</text>
      </g>
      
      <!-- 6. Page Life Cycle -->
      <g class="toc-item" transform="translate(0, 250)">
        <circle cx="14" cy="14" r="14" class="primary-color"/>
        <text x="14" y="19" class="font-toc-number text-white" text-anchor="middle">6</text>
        <use xlink:href="#icon-sync-alt" x="40" y="4" width="20" height="20" class="primary-color"/>
        <text x="70" y="20" class="font-toc-item text-color">Page Life Cycle</text>
      </g>
      
    </g>
    
    <!-- 右列の目次項目 -->
    <g id="right-column" transform="translate(550, 130)">
      
      <!-- 7. サーバーコントロール -->
      <g class="toc-item" transform="translate(0, 0)">
        <circle cx="14" cy="14" r="14" class="primary-color"/>
        <text x="14" y="19" class="font-toc-number text-white" text-anchor="middle">7</text>
        <use xlink:href="#icon-cube" x="40" y="4" width="20" height="20" class="primary-color"/>
        <text x="70" y="20" class="font-toc-item text-color">サーバーコントロール</text>
      </g>
      
      <!-- 8. データバインディング -->
      <g class="toc-item" transform="translate(0, 50)">
        <circle cx="14" cy="14" r="14" class="primary-color"/>
        <text x="14" y="19" class="font-toc-number text-white" text-anchor="middle">8</text>
        <use xlink:href="#icon-database" x="40" y="4" width="20" height="20" class="primary-color"/>
        <text x="70" y="20" class="font-toc-item text-color">データバインディング</text>
      </g>
      
      <!-- 9. 実践例：学生管理アプリ -->
      <g class="toc-item" transform="translate(0, 100)">
        <circle cx="14" cy="14" r="14" class="primary-color"/>
        <text x="14" y="19" class="font-toc-number text-white" text-anchor="middle">9</text>
        <use xlink:href="#icon-laptop-code" x="40" y="4" width="20" height="20" class="primary-color"/>
        <text x="70" y="20" class="font-toc-item text-color">実践例：学生管理アプリ</text>
      </g>
      
      <!-- 10. 学習ロードマップ -->
      <g class="toc-item" transform="translate(0, 150)">
        <circle cx="14" cy="14" r="14" class="primary-color"/>
        <text x="14" y="19" class="font-toc-number text-white" text-anchor="middle">10</text>
        <use xlink:href="#icon-road" x="40" y="4" width="20" height="20" class="primary-color"/>
        <text x="70" y="20" class="font-toc-item text-color">学習ロードマップ</text>
      </g>
      
      <!-- 11. よくある質問（FAQ） -->
      <g class="toc-item" transform="translate(0, 200)">
        <circle cx="14" cy="14" r="14" class="primary-color"/>
        <text x="14" y="19" class="font-toc-number text-white" text-anchor="middle">11</text>
        <use xlink:href="#icon-question-circle" x="40" y="4" width="20" height="20" class="primary-color"/>
        <text x="70" y="20" class="font-toc-item text-color">よくある質問（FAQ）</text>
      </g>
      
      <!-- 12. 参考リンク・資料 -->
      <g class="toc-item" transform="translate(0, 250)">
        <circle cx="14" cy="14" r="14" class="primary-color"/>
        <text x="14" y="19" class="font-toc-number text-white" text-anchor="middle">12</text>
        <use xlink:href="#icon-book" x="40" y="4" width="20" height="20" class="primary-color"/>
        <text x="70" y="20" class="font-toc-item text-color">参考リンク・資料</text>
      </g>
      
    </g>
    
    <!-- 説明文 -->
    <text x="50" y="520" class="font-body text-light">この学習資料では、基礎から応用まで段階的に学習を進められるよう構成されています。</text>
    
    <!-- プログレスバー -->
    <rect x="50" y="550" width="700" height="8" fill="#e5e7eb" rx="4"/>
    <rect x="50" y="550" width="116" height="8" class="primary-color" rx="4"/>
    
    <!-- 進捗テキスト -->
    <text x="50" y="580" class="font-small text-light">進捗状況: 2/12</text>
    
  </g>
  
</svg>