<?xml version="1.0" encoding="UTF-8"?>
<svg xmlns="http://www.w3.org/2000/svg" style="display: none;">
  <defs>
    <!-- Microsoft アイコン -->
    <symbol id="icon-microsoft" viewBox="0 0 24 24">
      <path d="M11.4 0H0v11.4h11.4V0zM24 0H12.6v11.4H24V0zM11.4 12.6H0V24h11.4V12.6zM24 12.6H12.6V24H24V12.6z"/>
    </symbol>
    
    <!-- コードアイコン -->
    <symbol id="icon-code" viewBox="0 0 24 24">
      <path d="M8.5 2L6.5 4l-3.5 3.5L6.5 11l2-2-1.5-1.5L8.5 6V2zM15.5 2v4l1.5 1.5L15.5 9l2 2 3.5-3.5L17.5 4L15.5 2zM12 14l-2-2-2 2v6l2-2 2 2v-6z"/>
    </symbol>
    
    <!-- サーバーアイコン -->
    <symbol id="icon-server" viewBox="0 0 24 24">
      <rect x="2" y="3" width="20" height="4" rx="1"/>
      <rect x="2" y="9" width="20" height="4" rx="1"/>
      <rect x="2" y="15" width="20" height="4" rx="1"/>
      <circle cx="6" cy="5" r="1"/>
      <circle cx="6" cy="11" r="1"/>
      <circle cx="6" cy="17" r="1"/>
    </symbol>
    
    <!-- データベースアイコン -->
    <symbol id="icon-database" viewBox="0 0 24 24">
      <ellipse cx="12" cy="5" rx="9" ry="3"/>
      <path d="M3 5v14c0 1.66 4.03 3 9 3s9-1.34 9-3V5"/>
      <path d="M3 12c0 1.66 4.03 3 9 3s9-1.34 9-3"/>
    </symbol>
    
    <!-- 情報アイコン -->
    <symbol id="icon-info-circle" viewBox="0 0 24 24">
      <circle cx="12" cy="12" r="10"/>
      <path d="M12 16v-4"/>
      <path d="M12 8h.01"/>
    </symbol>
    
    <!-- サイトマップアイコン -->
    <symbol id="icon-sitemap" viewBox="0 0 24 24">
      <rect x="3" y="3" width="6" height="4" rx="1"/>
      <rect x="15" y="3" width="6" height="4" rx="1"/>
      <rect x="9" y="15" width="6" height="4" rx="1"/>
      <path d="M6 7v4l6 0v4"/>
      <path d="M18 7v4l-6 0"/>
    </symbol>
    
    <!-- ツールアイコン -->
    <symbol id="icon-tools" viewBox="0 0 24 24">
      <path d="M3 12h3l2-2v-2l-2-2H3v6zM21 12h-3l-2-2V8l2-2h3v6z"/>
      <path d="M7.5 15.5L10 13l4 4-2.5 2.5c-.28.28-.68.5-1.06.5s-.77-.22-1.06-.5l-1.83-1.83c-.28-.28-.5-.68-.5-1.06s.22-.77.5-1.06z"/>
    </symbol>
    
    <!-- ファイルコードアイコン -->
    <symbol id="icon-file-code" viewBox="0 0 24 24">
      <path d="M14 2H6c-1.1 0-2 .9-2 2v16c0 1.1.9 2 2 2h12c1.1 0 2-.9 2-2V8l-6-6z"/>
      <path d="M14 2v6h6"/>
      <path d="M10 12l-2 2 2 2"/>
      <path d="M14 16l2-2-2-2"/>
    </symbol>
    
    <!-- 歯車アイコン -->
    <symbol id="icon-cogs" viewBox="0 0 24 24">
      <circle cx="12" cy="12" r="3"/>
      <path d="M19.4 15a1.65 1.65 0 0 0 .33 1.82l.06.06a2 2 0 0 1 0 2.83 2 2 0 0 1-2.83 0l-.06-.06a1.65 1.65 0 0 0-1.82-.33 1.65 1.65 0 0 0-1 1.51V21a2 2 0 0 1-2 2 2 2 0 0 1-2-2v-.09A1.65 1.65 0 0 0 9 19.4a1.65 1.65 0 0 0-1.82.33l-.06.06a2 2 0 0 1-2.83 0 2 2 0 0 1 0-2.83l.06-.06a1.65 1.65 0 0 0 .33-1.82 1.65 1.65 0 0 0-1.51-1H3a2 2 0 0 1-2-2 2 2 0 0 1 2-2h.09A1.65 1.65 0 0 0 4.6 9a1.65 1.65 0 0 0-.33-1.82l-.06-.06a2 2 0 0 1 0-2.83 2 2 0 0 1 2.83 0l.06.06a1.65 1.65 0 0 0 1.82.33H9a1.65 1.65 0 0 0 1-1.51V3a2 2 0 0 1 2-2 2 2 0 0 1 2 2v.09a1.65 1.65 0 0 0 1 1.51 1.65 1.65 0 0 0 1.82-.33l.06-.06a2 2 0 0 1 2.83 0 2 2 0 0 1 0 2.83l-.06.06a1.65 1.65 0 0 0-.33 1.82V9a1.65 1.65 0 0 0 1.51 1H21a2 2 0 0 1 2 2 2 2 0 0 1-2 2h-.09a1.65 1.65 0 0 0-1.51 1z"/>
    </symbol>
    
    <!-- 同期アイコン -->
    <symbol id="icon-sync-alt" viewBox="0 0 24 24">
      <path d="M1 4v6h6"/>
      <path d="M23 20v-6h-6"/>
      <path d="M20.49 9A9 9 0 0 0 5.64 5.64L1 10m22 4l-4.64 4.36A9 9 0 0 1 3.51 15"/>
    </symbol>
    
    <!-- キューブアイコン -->
    <symbol id="icon-cube" viewBox="0 0 24 24">
      <path d="M21 16V8a2 2 0 0 0-1-1.73l-7-4a2 2 0 0 0-2 0l-7 4A2 2 0 0 0 3 8v8a2 2 0 0 0 1 1.73l7 4a2 2 0 0 0 2 0l7-4A2 2 0 0 0 21 16z"/>
      <path d="M7.5 4.21l4.5 2.6 4.5-2.6"/>
      <path d="M7.5 19.79V14.6L3 12"/>
      <path d="M21 12l-4.5 2.6v5.19"/>
      <path d="M12 6.81v10.38"/>
    </symbol>
    
    <!-- ラップトップコードアイコン -->
    <symbol id="icon-laptop-code" viewBox="0 0 24 24">
      <rect x="2" y="4" width="20" height="12" rx="2"/>
      <path d="M2 17h20"/>
      <path d="M6 11l2 2-2 2"/>
      <path d="M10 15h4"/>
    </symbol>
    
    <!-- 道路アイコン -->
    <symbol id="icon-road" viewBox="0 0 24 24">
      <path d="M8 3h8L18 21H6L8 3z"/>
      <path d="M12 8v2"/>
      <path d="M12 14v2"/>
    </symbol>
    
    <!-- 質問アイコン -->
    <symbol id="icon-question-circle" viewBox="0 0 24 24">
      <circle cx="12" cy="12" r="10"/>
      <path d="M9.09 9a3 3 0 0 1 5.83 1c0 2-3 3-3 3"/>
      <path d="M12 17h.01"/>
    </symbol>
    
    <!-- 本アイコン -->
    <symbol id="icon-book" viewBox="0 0 24 24">
      <path d="M4 19.5A2.5 2.5 0 0 1 6.5 17H20"/>
      <path d="M6.5 2H20v20H6.5A2.5 2.5 0 0 1 4 19.5v-15A2.5 2.5 0 0 1 6.5 2z"/>
    </symbol>
    
    <!-- チェックサークルアイコン -->
    <symbol id="icon-check-circle" viewBox="0 0 24 24">
      <circle cx="12" cy="12" r="10"/>
      <path d="M9 12l2 2 4-4"/>
    </symbol>
    
    <!-- ユーザーアイコン -->
    <symbol id="icon-user" viewBox="0 0 24 24">
      <path d="M20 21v-2a4 4 0 0 0-4-4H8a4 4 0 0 0-4 4v2"/>
      <circle cx="12" cy="7" r="4"/>
    </symbol>
    
    <!-- 矢印右アイコン -->
    <symbol id="icon-arrow-right" viewBox="0 0 24 24">
      <path d="M5 12h14"/>
      <path d="M12 5l7 7-7 7"/>
    </symbol>
    
    <!-- チェックアイコン -->
    <symbol id="icon-check" viewBox="0 0 24 24">
      <path d="M20 6L9 17l-5-5"/>
    </symbol>
    
    <!-- 警告アイコン -->
    <symbol id="icon-exclamation-circle" viewBox="0 0 24 24">
      <circle cx="12" cy="12" r="10"/>
      <path d="M12 8v4"/>
      <path d="M12 16h.01"/>
    </symbol>
    
    <!-- ビデオアイコン -->
    <symbol id="icon-video" viewBox="0 0 24 24">
      <polygon points="23 7 16 12 23 17 23 7"/>
      <rect x="1" y="5" width="15" height="14" rx="2" ry="2"/>
    </symbol>
    
    <!-- ユーザーグループアイコン -->
    <symbol id="icon-users" viewBox="0 0 24 24">
      <path d="M17 21v-2a4 4 0 0 0-4-4H5a4 4 0 0 0-4 4v2"/>
      <circle cx="9" cy="7" r="4"/>
      <path d="M23 21v-2a4 4 0 0 0-3-3.87"/>
      <path d="M16 3.13a4 4 0 0 1 0 7.75"/>
    </symbol>
  </defs>
</svg>